<mxfile host="65bd71144e">
    <diagram id="qP-4uzo_GqWtdiNv750e" name="Page-1">
        <mxGraphModel dx="978" dy="800" grid="1" gridSize="10" guides="1" tooltips="1" connect="1" arrows="1" fold="1" page="1" pageScale="1" pageWidth="850" pageHeight="1100" math="0" shadow="0">
            <root>
                <mxCell id="0"/>
                <mxCell id="1" parent="0"/>
                <mxCell id="3" value="Encrypted secret" style="rounded=0;whiteSpace=wrap;html=1;" parent="1" vertex="1">
                    <mxGeometry x="600" y="1140" width="120" height="40" as="geometry"/>
                </mxCell>
                <mxCell id="11" style="edgeStyle=orthogonalEdgeStyle;rounded=0;orthogonalLoop=1;jettySize=auto;html=1;exitX=1;exitY=0.5;exitDx=0;exitDy=0;entryX=0;entryY=0.5;entryDx=0;entryDy=0;" parent="1" source="5" target="3" edge="1">
                    <mxGeometry relative="1" as="geometry"/>
                </mxCell>
                <mxCell id="5" value="ðŸ”‘" style="rounded=0;whiteSpace=wrap;html=1;horizontal=0;fillColor=#e3c800;strokeColor=#B09500;fontColor=#000000;" parent="1" vertex="1">
                    <mxGeometry x="530" y="1120" width="30" height="80" as="geometry"/>
                </mxCell>
                <mxCell id="6" value="ENC(UK&lt;sub&gt;old&lt;/sub&gt;)" style="rounded=0;whiteSpace=wrap;html=1;" parent="1" vertex="1">
                    <mxGeometry x="400" y="1120" width="130" height="40" as="geometry"/>
                </mxCell>
                <mxCell id="7" value="ENC(UK&lt;sub&gt;2&lt;/sub&gt;)" style="rounded=0;whiteSpace=wrap;html=1;" parent="1" vertex="1">
                    <mxGeometry x="400" y="1160" width="130" height="40" as="geometry"/>
                </mxCell>
                <mxCell id="12" value="" style="endArrow=none;html=1;" parent="1" edge="1">
                    <mxGeometry width="50" height="50" relative="1" as="geometry">
                        <mxPoint x="40" y="801" as="sourcePoint"/>
                        <mxPoint x="800" y="801" as="targetPoint"/>
                    </mxGeometry>
                </mxCell>
                <mxCell id="13" value="&lt;h1&gt;New secret&lt;/h1&gt;&lt;p&gt;When a user creates a new secret, the client generates a key for it (SK). The key is then encrypted by the user's own key (UK). This key will be placed in KT.&lt;/p&gt;" style="text;html=1;strokeColor=none;fillColor=none;spacing=5;spacingTop=-20;whiteSpace=wrap;overflow=hidden;rounded=0;" parent="1" vertex="1">
                    <mxGeometry x="40" y="561" width="360" height="120" as="geometry"/>
                </mxCell>
                <mxCell id="14" value="&lt;h1&gt;Legend&lt;/h1&gt;&lt;p&gt;User's pre-key: &lt;b&gt;PK&lt;/b&gt;&lt;br&gt;User's key: &lt;b&gt;UK&lt;/b&gt;&lt;br&gt;Secret's key: &lt;b&gt;SK&lt;/b&gt;&lt;br&gt;UK-&amp;gt;SC&amp;nbsp;key table: &lt;b&gt;KT&lt;/b&gt;&lt;/p&gt;" style="text;html=1;strokeColor=none;fillColor=none;spacing=5;spacingTop=-20;whiteSpace=wrap;overflow=hidden;rounded=0;" parent="1" vertex="1">
                    <mxGeometry x="640" y="40" width="190" height="120" as="geometry"/>
                </mxCell>
                <mxCell id="15" value="Encrypted secret" style="rounded=0;whiteSpace=wrap;html=1;" parent="1" vertex="1">
                    <mxGeometry x="370" y="721" width="120" height="40" as="geometry"/>
                </mxCell>
                <mxCell id="16" style="edgeStyle=orthogonalEdgeStyle;rounded=0;orthogonalLoop=1;jettySize=auto;html=1;exitX=1;exitY=0.5;exitDx=0;exitDy=0;entryX=0;entryY=0.5;entryDx=0;entryDy=0;" parent="1" source="17" target="15" edge="1">
                    <mxGeometry relative="1" as="geometry"/>
                </mxCell>
                <mxCell id="17" value="ðŸ”‘ SK" style="rounded=0;whiteSpace=wrap;html=1;horizontal=1;fillColor=#e3c800;strokeColor=#B09500;fontColor=#000000;align=center;spacingLeft=0;" parent="1" vertex="1">
                    <mxGeometry x="270" y="721" width="60" height="40" as="geometry"/>
                </mxCell>
                <mxCell id="18" value="ENC(UK&lt;sub&gt;1&lt;/sub&gt;)" style="rounded=0;whiteSpace=wrap;html=1;" parent="1" vertex="1">
                    <mxGeometry x="200" y="721" width="70" height="40" as="geometry"/>
                </mxCell>
                <mxCell id="21" value="&lt;h1&gt;Access &amp;amp; update secret&lt;/h1&gt;&lt;p&gt;There is no difference between access and update. If the user managed to open the secret, it can re-encrypt it and store something else at that place.&lt;/p&gt;" style="text;html=1;strokeColor=none;fillColor=none;spacing=5;spacingTop=-20;whiteSpace=wrap;overflow=hidden;rounded=0;" parent="1" vertex="1">
                    <mxGeometry x="40" y="801" width="360" height="120" as="geometry"/>
                </mxCell>
                <mxCell id="22" value="" style="endArrow=none;html=1;" parent="1" edge="1">
                    <mxGeometry width="50" height="50" relative="1" as="geometry">
                        <mxPoint x="40" y="560" as="sourcePoint"/>
                        <mxPoint x="800" y="560" as="targetPoint"/>
                    </mxGeometry>
                </mxCell>
                <mxCell id="23" value="" style="endArrow=none;html=1;" parent="1" edge="1">
                    <mxGeometry width="50" height="50" relative="1" as="geometry">
                        <mxPoint x="40" y="921" as="sourcePoint"/>
                        <mxPoint x="800" y="921" as="targetPoint"/>
                    </mxGeometry>
                </mxCell>
                <mxCell id="24" value="&lt;h1&gt;Change password&lt;/h1&gt;&lt;p&gt;If a user changes their password, only their own row is changed in KT so it will not affect other users' access.&lt;/p&gt;&lt;p&gt;&lt;/p&gt;&lt;ol&gt;&lt;li&gt;Create new UK from new password&lt;/li&gt;&lt;li&gt;Decrypt ENC(UK&lt;sub&gt;old&lt;/sub&gt;, SK)&lt;/li&gt;&lt;li&gt;Encrypt (UK&lt;sub&gt;new&lt;/sub&gt;, SK)&lt;/li&gt;&lt;li&gt;Update row in KT&lt;/li&gt;&lt;/ol&gt;&lt;p&gt;&lt;/p&gt;" style="text;html=1;strokeColor=none;fillColor=none;spacing=5;spacingTop=-20;whiteSpace=wrap;overflow=hidden;rounded=0;" parent="1" vertex="1">
                    <mxGeometry x="40" y="921" width="360" height="189" as="geometry"/>
                </mxCell>
                <mxCell id="25" value="&lt;h1&gt;Basic considerations&lt;/h1&gt;&lt;p&gt;&lt;/p&gt;&lt;ul&gt;&lt;li&gt;&lt;span&gt;Every user holds an asymmetric key that other friend or member users can access.&lt;/span&gt;&lt;/li&gt;&lt;/ul&gt;&lt;div&gt;&lt;br&gt;&lt;/div&gt;&lt;div&gt;&lt;br&gt;&lt;/div&gt;&lt;div&gt;&lt;br&gt;&lt;/div&gt;&lt;div&gt;&lt;br&gt;&lt;/div&gt;&lt;div&gt;&lt;ul&gt;&lt;li&gt;&lt;span&gt;To be able to update a compromised SK, we need to message accepted KT members about the change. We use asymmetric cryptography to send information to them.&lt;/span&gt;&lt;/li&gt;&lt;/ul&gt;&lt;/div&gt;&lt;div&gt;&lt;ul&gt;&lt;li&gt;Fingerprinting works by accepting the first key you encounter as truth. If you're invited to a secret, you have to accept the first encoded key you get as truth and from then on you can access the fingerprint with that key and can validate further changes.&lt;/li&gt;&lt;li&gt;...&lt;/li&gt;&lt;/ul&gt;&lt;/div&gt;&lt;p&gt;&lt;/p&gt;" style="text;html=1;strokeColor=none;fillColor=none;spacing=5;spacingTop=-20;whiteSpace=wrap;overflow=hidden;rounded=0;" parent="1" vertex="1">
                    <mxGeometry x="40" y="40" width="550" height="340" as="geometry"/>
                </mxCell>
                <mxCell id="26" value="ENC(UK&lt;sub&gt;new&lt;/sub&gt;)" style="rounded=0;whiteSpace=wrap;html=1;" parent="1" vertex="1">
                    <mxGeometry x="160" y="1120" width="130" height="40" as="geometry"/>
                </mxCell>
                <mxCell id="27" value="ðŸ”‘" style="rounded=0;whiteSpace=wrap;html=1;horizontal=0;fillColor=#e3c800;strokeColor=#B09500;fontColor=#000000;" parent="1" vertex="1">
                    <mxGeometry x="290" y="1120" width="30" height="40" as="geometry"/>
                </mxCell>
                <mxCell id="28" value="" style="pointerEvents=1;shadow=0;dashed=0;html=1;labelPosition=center;verticalLabelPosition=bottom;verticalAlign=top;align=center;shape=mxgraph.mscae.intune.update;fillColor=#f5f5f5;strokeColor=#666666;fontColor=#333333;" parent="1" vertex="1">
                    <mxGeometry x="350" y="1125" width="30" height="30" as="geometry"/>
                </mxCell>
                <mxCell id="29" value="" style="endArrow=none;html=1;" parent="1" edge="1">
                    <mxGeometry width="50" height="50" relative="1" as="geometry">
                        <mxPoint x="40" y="1240" as="sourcePoint"/>
                        <mxPoint x="800" y="1240" as="targetPoint"/>
                    </mxGeometry>
                </mxCell>
                <mxCell id="30" value="&lt;h1&gt;Remove user&lt;/h1&gt;&lt;p&gt;To remove a user, we need to invalidate their UK. Since the removable user already has access to the latest version of the secret, we can only deny him of accessing newer versions.&lt;/p&gt;&lt;p&gt;We can do this by creating a new version of the secret with a new SK and KT that only contains UKs of accepted members. We can send the new SK to members by encrypting SK with the member's PubKey and store it in the old KT. When we created every pubkey encrypted SK, the old secret can be deleted.&lt;/p&gt;&lt;p&gt;The next time a member accesses the old KT, they will be notified about a new KT where the encrypted SK will be available for them to uncover.&lt;/p&gt;&lt;p&gt;&lt;/p&gt;" style="text;html=1;strokeColor=none;fillColor=none;spacing=5;spacingTop=-20;whiteSpace=wrap;overflow=hidden;rounded=0;" parent="1" vertex="1">
                    <mxGeometry x="40" y="1240" width="440" height="240" as="geometry"/>
                </mxCell>
                <mxCell id="31" value="Encrypted secret" style="rounded=0;whiteSpace=wrap;html=1;" parent="1" vertex="1">
                    <mxGeometry x="265" y="1520" width="120" height="40" as="geometry"/>
                </mxCell>
                <mxCell id="32" style="edgeStyle=orthogonalEdgeStyle;rounded=0;orthogonalLoop=1;jettySize=auto;html=1;exitX=1;exitY=0.5;exitDx=0;exitDy=0;entryX=0;entryY=0.5;entryDx=0;entryDy=0;" parent="1" source="33" target="31" edge="1">
                    <mxGeometry relative="1" as="geometry"/>
                </mxCell>
                <mxCell id="33" value="ðŸ”‘" style="rounded=0;whiteSpace=wrap;html=1;horizontal=0;fillColor=#e3c800;strokeColor=#B09500;fontColor=#000000;" parent="1" vertex="1">
                    <mxGeometry x="195" y="1480" width="30" height="120" as="geometry"/>
                </mxCell>
                <mxCell id="34" value="ENC(UK&lt;sub&gt;1&lt;/sub&gt;)" style="rounded=0;whiteSpace=wrap;html=1;" parent="1" vertex="1">
                    <mxGeometry x="65" y="1480" width="130" height="40" as="geometry"/>
                </mxCell>
                <mxCell id="35" value="ENC(UK&lt;sub&gt;2&lt;/sub&gt;)" style="rounded=0;whiteSpace=wrap;html=1;" parent="1" vertex="1">
                    <mxGeometry x="65" y="1520" width="130" height="40" as="geometry"/>
                </mxCell>
                <mxCell id="36" value="ENC(UK&lt;sub&gt;3&lt;/sub&gt;)&lt;br&gt;removable user" style="rounded=0;whiteSpace=wrap;html=1;fillColor=#a20025;fontColor=#ffffff;strokeColor=#FFFFFF;" parent="1" vertex="1">
                    <mxGeometry x="65" y="1560" width="130" height="40" as="geometry"/>
                </mxCell>
                <mxCell id="37" value="Encrypted secret v2" style="rounded=0;whiteSpace=wrap;html=1;" parent="1" vertex="1">
                    <mxGeometry x="665" y="1520" width="120" height="40" as="geometry"/>
                </mxCell>
                <mxCell id="38" style="edgeStyle=orthogonalEdgeStyle;rounded=0;orthogonalLoop=1;jettySize=auto;html=1;exitX=1;exitY=0.5;exitDx=0;exitDy=0;entryX=0;entryY=0.5;entryDx=0;entryDy=0;" parent="1" source="39" target="37" edge="1">
                    <mxGeometry relative="1" as="geometry"/>
                </mxCell>
                <mxCell id="39" value="ðŸ”‘" style="rounded=0;whiteSpace=wrap;html=1;horizontal=0;fillColor=#6a00ff;strokeColor=#3700CC;fontColor=#ffffff;" parent="1" vertex="1">
                    <mxGeometry x="595" y="1500" width="30" height="80" as="geometry"/>
                </mxCell>
                <mxCell id="40" value="ENC(UK&lt;sub&gt;1&lt;/sub&gt;)" style="rounded=0;whiteSpace=wrap;html=1;" parent="1" vertex="1">
                    <mxGeometry x="465" y="1500" width="130" height="40" as="geometry"/>
                </mxCell>
                <mxCell id="41" value="ENC(UK&lt;sub&gt;2&lt;/sub&gt;)" style="rounded=0;whiteSpace=wrap;html=1;" parent="1" vertex="1">
                    <mxGeometry x="465" y="1540" width="130" height="40" as="geometry"/>
                </mxCell>
                <mxCell id="48" value="" style="group" parent="1" vertex="1" connectable="0">
                    <mxGeometry x="310" y="1515" width="40" height="50" as="geometry"/>
                </mxCell>
                <mxCell id="43" value="" style="endArrow=none;html=1;strokeWidth=12;fillColor=#e51400;strokeColor=#B20000;rounded=0;" parent="48" edge="1">
                    <mxGeometry width="50" height="50" relative="1" as="geometry">
                        <mxPoint y="50" as="sourcePoint"/>
                        <mxPoint x="40" as="targetPoint"/>
                    </mxGeometry>
                </mxCell>
                <mxCell id="47" value="" style="endArrow=none;html=1;strokeWidth=12;fillColor=#e51400;strokeColor=#B20000;rounded=0;" parent="48" edge="1">
                    <mxGeometry width="50" height="50" relative="1" as="geometry">
                        <mxPoint x="40" y="50" as="sourcePoint"/>
                        <mxPoint as="targetPoint"/>
                    </mxGeometry>
                </mxCell>
                <mxCell id="49" value="&lt;br&gt;&lt;br&gt;User" style="shape=actor;whiteSpace=wrap;html=1;" vertex="1" parent="1">
                    <mxGeometry x="90" y="120" width="40" height="50" as="geometry"/>
                </mxCell>
                <mxCell id="50" value="ðŸ”‘ Public key" style="rounded=0;whiteSpace=wrap;html=1;fillColor=#e3c800;strokeColor=#B09500;fontColor=#000000;" vertex="1" parent="1">
                    <mxGeometry x="150" y="120" width="90" height="30" as="geometry"/>
                </mxCell>
                <mxCell id="51" value="&lt;span style=&quot;color: rgb(0 , 0 , 0)&quot;&gt;ðŸ”‘&amp;nbsp;&lt;/span&gt;Private key" style="rounded=0;whiteSpace=wrap;html=1;fillColor=#a20025;strokeColor=#6F0000;fontColor=#ffffff;" vertex="1" parent="1">
                    <mxGeometry x="150" y="150" width="90" height="30" as="geometry"/>
                </mxCell>
            </root>
        </mxGraphModel>
    </diagram>
</mxfile>